<svg xmlns="http://www.w3.org/2000/svg" width="280.219" height="174.693" viewBox="0 0 280.219 174.693">
  <g id="Group_1" data-name="Group 1" transform="translate(-4.781 317.68)">
    <path id="Path_3" data-name="Path 3" d="M140.88-309.085l-.188,28.682-4.243,6.512" transform="translate(0 -1.325)" fill="none" stroke="#fff" stroke-width="1"/>
    <path id="Path_4" data-name="Path 4" d="M4.94-304.551l102.154,8.006,33.786-11.387L36.973-315.226Z" transform="translate(0 -1.948)" fill="none" stroke="#fff" stroke-width="1"/>
    <path id="Path_6" data-name="Path 6" d="M6.129-243.1l-.849-62.8" fill="none" stroke="#fff" stroke-width="1"/>
    <path id="Path_7" data-name="Path 7" d="M107.039-298.493l-.9,91.554" fill="none" stroke="#fff" stroke-width="1"/>
    <path id="Path_8" data-name="Path 8" d="M6.016-243.547l1.708,2.321" transform="translate(0.016 0.156)" fill="none" stroke="#fff" stroke-width="1"/>
    <text id="CARDBOX_" data-name="CARDBOX " transform="translate(23 -166)" fill="#274e6a" font-size="50" font-family="ArialMT, Arial"><tspan x="0" y="0">CARDBOX </tspan></text>
    <path id="Path_2" data-name="Path 2" d="M106.055-231.878v16.042L7.265-229.7" transform="translate(0.156 72.263)" fill="none" stroke="#fff" stroke-width="1"/>
    <path id="Path_10" data-name="Path 10" d="M7.421-157.92v-83.867" transform="translate(0 1)" fill="none" stroke="#fff" stroke-width="1"/>
    <path id="Path_11" data-name="Path 11" d="M106.478-143.427l13.665-7.372,19.092-9.9v-2.321" fill="none" stroke="#fff" stroke-width="1"/>
    <path id="Path_12" data-name="Path 12" d="M6.953-241.2l99.457,8.5,31.549-44.725" fill="none" stroke="#fff" stroke-width="1"/>
    <path id="Path_13" data-name="Path 13" d="M139.235-206.954v-72.409" fill="none" stroke="#fff" stroke-width="1"/>
  </g>
</svg>
